<svg xmlns="http://www.w3.org/2000/svg" viewBox="0 0 520 520" role="img" aria-labelledby="title desc">
  <title id="title">Logo de Polleria La 10</title>
  <desc id="desc">Insignia roja y amarilla para Polleria La 10 con pollo fresco.</desc>
  <rect width="520" height="520" fill="#fff8eb"/>
  <rect x="12" y="12" width="496" height="496" rx="64" fill="#ffe6a3"/>
  <circle cx="260" cy="248" r="158" fill="#fffdf8" opacity="0.82"/>
  <path d="M164 220c-13-37 13-78 54-78 8-43 68-54 95-19 40-12 80 18 76 61 32 18 36 67 3 91-16 12-39 17-68 14-31 31-91 34-126 6-34 2-60-10-72-31-10-17-5-34 38-44z" fill="#fffdf8" stroke="#5a2f22" stroke-width="14" stroke-linejoin="round"/>
  <path d="M158 240c46 14 85 15 118 3 39-15 72-13 105 5" fill="none" stroke="#f0d8b7" stroke-width="12" stroke-linecap="round"/>
  <path d="M117 299h286l45 38-45 38H117l-45-38z" fill="#c94a3a" stroke="#5a2f22" stroke-width="12" stroke-linejoin="round"/>
  <path d="M95 336h330" fill="none" stroke="#f7c948" stroke-width="9" stroke-linecap="round"/>
  <text x="260" y="351" text-anchor="middle" fill="#fffdf8" stroke="#5a2f22" stroke-width="5" paint-order="stroke" font-family="Segoe UI, Arial, sans-serif" font-size="70" font-weight="900">La 10</text>
  <text x="260" y="86" text-anchor="middle" fill="#c94a3a" font-family="Segoe UI, Arial, sans-serif" font-size="36" font-weight="900">Polleria</text>
  <path d="M191 418c35 14 91 20 138 0" fill="none" stroke="#5a2f22" stroke-width="12" stroke-linecap="round"/>
  <circle cx="260" cy="438" r="15" fill="#f7c948" stroke="#5a2f22" stroke-width="7"/>
</svg>
