<svg xmlns="http://www.w3.org/2000/svg" viewBox="0 0 900 520" role="img" aria-labelledby="title desc">
  <title id="title">Vista previa de ubicacion</title>
  <desc id="desc">Mapa estilizado con marcador de ubicacion para Polleria La 10.</desc>
  <rect width="900" height="520" fill="#fff8eb"/>
  <path d="M0 92c125 35 214 26 330-18 114-43 215-49 335-12 95 29 162 24 235-2v128c-85 25-170 16-260-18-99-37-193-32-300 8-126 47-224 52-340 16z" fill="#ffe6a3"/>
  <path d="M0 372c90-38 179-43 280-17 112 29 213 26 320-18 112-46 204-48 300-19v202H0z" fill="#f0d8b7"/>
  <path d="M-40 260C138 218 290 226 420 286c126 58 286 67 520 0" fill="none" stroke="#fffdf8" stroke-width="58" stroke-linecap="round"/>
  <path d="M-34 260C139 219 290 228 416 286c128 59 289 68 518 1" fill="none" stroke="#e9c9a0" stroke-width="8" stroke-linecap="round" stroke-dasharray="24 22"/>
  <path d="M132-30c20 152 42 267 124 392 28 43 57 91 81 158" fill="none" stroke="#fffdf8" stroke-width="46" stroke-linecap="round"/>
  <path d="M132-30c20 152 42 267 124 392 28 43 57 91 81 158" fill="none" stroke="#e9c9a0" stroke-width="7" stroke-linecap="round" stroke-dasharray="22 20"/>
  <path d="M695-30c-52 98-67 188-48 276 21 99 5 187-64 274" fill="none" stroke="#fffdf8" stroke-width="44" stroke-linecap="round"/>
  <path d="M695-30c-52 98-67 188-48 276 21 99 5 187-64 274" fill="none" stroke="#e9c9a0" stroke-width="7" stroke-linecap="round" stroke-dasharray="22 20"/>
  <circle cx="458" cy="255" r="86" fill="#fffdf8" opacity="0.88"/>
  <path d="M458 118c-57 0-103 46-103 103 0 79 103 181 103 181s103-102 103-181c0-57-46-103-103-103z" fill="#c94a3a"/>
  <circle cx="458" cy="221" r="43" fill="#fff8eb"/>
  <circle cx="458" cy="221" r="20" fill="#f7c948"/>
  <rect x="40" y="38" width="256" height="58" rx="8" fill="#fffdf8" opacity="0.94"/>
  <text x="66" y="73" fill="#5a2f22" font-family="Segoe UI, Arial, sans-serif" font-size="24" font-weight="800">Ubicacion</text>
  <rect x="614" y="404" width="236" height="62" rx="8" fill="#fffdf8" opacity="0.94"/>
  <text x="674" y="442" fill="#5a2f22" font-family="Segoe UI, Arial, sans-serif" font-size="22" font-weight="800">Polleria La 10</text>
</svg>
